<?xml version="1.0" encoding="utf-8"?>
<!-- Generator: Adobe Illustrator 17.1.0, SVG Export Plug-In . SVG Version: 6.00 Build 0)  -->
<!DOCTYPE svg PUBLIC "-//W3C//DTD SVG 1.1//EN" "http://www.w3.org/Graphics/SVG/1.1/DTD/svg11.dtd">
<svg version="1.1" id="Layer_1" xmlns="http://www.w3.org/2000/svg" xmlns:xlink="http://www.w3.org/1999/xlink" x="0px" y="0px"
	 viewBox="0 0 216 72" enable-background="new 0 0 216 72" xml:space="preserve">
<g>
	<path d="M69.8,39.4V31H75v1.4h-3.6v1.8h2.9v1.4h-2.9v2.3h3.8v1.4H69.8z"/>
	<path d="M76,37.6c0-0.6,0.2-1.1,0.7-1.4s1.1-0.5,1.9-0.5h1v-0.3c0-0.6-0.4-0.9-1.1-0.9c-0.5,0-0.9,0.2-1,0.7l-1.3-0.3
		c0.1-0.5,0.4-0.9,0.8-1.2s0.9-0.5,1.5-0.5c1.7,0,2.5,0.8,2.5,2.5v3.6h-1.2l-0.2-0.8c-0.5,0.6-1.1,0.9-1.9,0.9c-0.5,0-1-0.2-1.3-0.5
		S76,38.2,76,37.6z M77.6,37.6c0,0.2,0.1,0.3,0.2,0.4s0.3,0.2,0.5,0.2c0.4,0,0.7-0.1,1-0.3c0.3-0.2,0.4-0.5,0.4-0.9v-0.1h-1
		C77.9,36.8,77.6,37.1,77.6,37.6z"/>
	<path d="M82.7,39.4v-6h1.5v1c0.2-0.3,0.5-0.6,0.8-0.8s0.6-0.3,1-0.3c0.2,0,0.5,0,0.7,0.1l-0.3,1.4c-0.2-0.1-0.4-0.2-0.6-0.2
		c-0.5,0-0.9,0.2-1.2,0.7s-0.4,1.1-0.4,2v2.2H82.7z"/>
	<path d="M87,34.6v-1.3H88v-1.5l1.5-0.9v2.4H91v1.3h-1.6v2.6c0,0.4,0.1,0.6,0.2,0.8s0.3,0.2,0.6,0.2c0.2,0,0.4,0,0.6-0.1l0.3,1.2
		c-0.3,0.1-0.6,0.2-1,0.2c-0.7,0-1.3-0.2-1.6-0.6S88,38,88,37.2v-2.6H87z"/>
	<path d="M92.5,39.4v-8.5H94v3.4c0.4-0.7,1.1-1.1,1.9-1.1c0.6,0,1.1,0.2,1.4,0.5s0.5,0.8,0.5,1.4v4.3h-1.5v-3.8
		c0-0.7-0.3-1.1-0.9-1.1c-0.4,0-0.7,0.2-1,0.6s-0.4,1-0.4,1.7v2.6H92.5z"/>
	<path d="M102.2,35.2c0-1.3,0.4-2.4,1.2-3.2c0.8-0.8,1.7-1.1,2.8-1.1c0.9,0,1.7,0.2,2.3,0.7c0.6,0.4,1,1.1,1.2,1.9l-1.4,0.4
		c-0.4-1-1.1-1.5-2.1-1.5c-0.7,0-1.3,0.2-1.7,0.7c-0.4,0.5-0.7,1.2-0.7,2.1c0,0.9,0.2,1.6,0.7,2.1c0.5,0.5,1,0.7,1.7,0.7
		c1,0,1.7-0.5,2.1-1.5l1.4,0.4c-0.2,0.8-0.6,1.4-1.2,1.9c-0.6,0.4-1.4,0.7-2.3,0.7c-1.1,0-2-0.4-2.8-1.1S102.2,36.5,102.2,35.2z"/>
	<path d="M111,39.4v-8.5h1.5v3.4c0.4-0.7,1.1-1.1,1.9-1.1c0.6,0,1.1,0.2,1.4,0.5s0.5,0.8,0.5,1.4v4.3h-1.5v-3.8
		c0-0.7-0.3-1.1-0.9-1.1c-0.4,0-0.7,0.2-1,0.6s-0.4,1-0.4,1.7v2.6H111z"/>
	<path d="M117.6,37.6c0-0.6,0.2-1.1,0.7-1.4s1.1-0.5,1.9-0.5h1v-0.3c0-0.6-0.4-0.9-1.1-0.9c-0.5,0-0.9,0.2-1,0.7l-1.3-0.3
		c0.1-0.5,0.4-0.9,0.8-1.2c0.4-0.3,0.9-0.5,1.5-0.5c1.7,0,2.5,0.8,2.5,2.5v3.6h-1.2l-0.2-0.8c-0.5,0.6-1.1,0.9-1.9,0.9
		c-0.5,0-1-0.2-1.3-0.5S117.6,38.2,117.6,37.6z M119.1,37.6c0,0.2,0.1,0.3,0.2,0.4c0.1,0.1,0.3,0.2,0.5,0.2c0.4,0,0.7-0.1,1-0.3
		c0.3-0.2,0.4-0.5,0.4-0.9v-0.1h-1C119.5,36.8,119.1,37.1,119.1,37.6z"/>
	<path d="M124.2,39.4v-6h1.5v1c0.5-0.7,1.1-1.1,1.9-1.1c0.6,0,1,0.2,1.4,0.5s0.5,0.8,0.5,1.4v4.3H128v-3.9c0-0.7-0.3-1-0.9-1
		c-0.4,0-0.7,0.2-1,0.7s-0.4,1-0.4,1.8v2.4H124.2z"/>
	<path d="M131.3,39.4v-6h1.5v1c0.5-0.7,1.1-1.1,1.9-1.1c0.6,0,1,0.2,1.4,0.5s0.5,0.8,0.5,1.4v4.3H135v-3.9c0-0.7-0.3-1-0.9-1
		c-0.4,0-0.7,0.2-1,0.7s-0.4,1-0.4,1.8v2.4H131.3z"/>
	<path d="M138,37.2c-0.1-0.3-0.1-0.6-0.1-0.9s0-0.6,0.1-0.9s0.2-0.6,0.3-0.8s0.3-0.5,0.6-0.7s0.5-0.4,0.8-0.5s0.7-0.2,1.1-0.2
		c0.5,0,0.9,0.1,1.3,0.3s0.7,0.4,0.9,0.7c0.4,0.6,0.7,1.2,0.7,2v0.6h-4.2c0,0.4,0.2,0.7,0.4,1s0.6,0.4,1,0.4c0.6,0,1.1-0.3,1.5-0.9
		l1.2,0.4c-0.5,1.2-1.4,1.8-2.7,1.8c-0.4,0-0.8-0.1-1.1-0.2s-0.6-0.3-0.8-0.5s-0.4-0.4-0.6-0.7S138,37.5,138,37.2z M139.5,35.6h2.6
		c-0.2-0.8-0.6-1.1-1.3-1.1c-0.3,0-0.6,0.1-0.9,0.3S139.5,35.3,139.5,35.6z"/>
	<path d="M145,39.4v-8.5h1.5v8.5H145z"/>
</g>
<path d="M169.7,48.7H46.3V21.9h123.4V48.7z M48.3,46.7h119.4V23.9H48.3V46.7z"/>
</svg>
